<?xml version="1.0" encoding="utf-8"?>
<!-- Generator: Adobe Illustrator 27.6.1, SVG Export Plug-In . SVG Version: 6.00 Build 0)  -->
<svg version="1.1" id="Layer_1" xmlns="http://www.w3.org/2000/svg" xmlns:xlink="http://www.w3.org/1999/xlink" x="0px" y="0px"
	 viewBox="0 0 512 512" style="enable-background:new 0 0 512 512;" xml:space="preserve">
<style type="text/css">
	.st0{fill:#0B996E;}
	.st1{fill-rule:evenodd;clip-rule:evenodd;}
</style>
<g>
	<path class="st0" d="M419.98,241.92c0-22.92,14.5-39.04,35.13-39.04c20.63,0,35.36,16.11,35.36,39.04s-14.73,38.12-35.36,38.12
		C434.48,280.04,419.98,264.15,419.98,241.92z M398.45,241.92c0,33.81,23.57,57.64,56.66,57.64S512,275.73,512,241.92
		s-23.57-58.55-56.89-58.55C421.79,183.37,398.45,207.66,398.45,241.92z M288.52,184.73l44.43,113.47h20.85l44.42-113.47h-22.44
		l-32.18,87.6h-0.45l-32.19-87.6H288.52z M202.17,237.83c1.36-20.88,15.19-34.95,34-34.95c16.32,0,28.56,10.44,30.37,26.1h-37.63
		c-13.37,0-20.63,1.59-26.06,8.85L202.17,237.83L202.17,237.83z M180.64,241.24c0,33.81,23.8,58.32,56.66,58.32
		c22.21,0,41.7-11.34,50.09-29.28l-18.13-9.08c-6.34,11.8-18.59,18.84-31.96,18.84c-16.1,0-30.6-12.26-30.6-24.06
		c0-6.12,4.08-8.85,9.97-8.85h71.84V241c0-34.04-21.76-57.64-53.03-57.64S180.63,207.64,180.64,241.24 M118.99,298.19h20.4v-69.66
		c0-14.98,9.29-25.65,22.21-25.65c5.44,0,11.1,1.82,13.83,4.31c2.04-5.45,5.21-10.89,9.97-16.34c-5.44-4.54-14.73-7.49-23.8-7.49
		c-24.93,0-42.61,18.61-42.61,45.16V298.19L118.99,298.19z M20.4,223.09V167.7h33.54c11.33,0,18.81,6.58,18.81,16.57
		c0,11.34-9.74,19.97-29.69,26.55c-13.6,4.31-19.72,7.94-21.99,12.26L20.4,223.09z M20.4,278.69v-23.15
		c0-10.21,8.61-20.2,20.63-24.06c10.66-3.63,19.49-7.26,26.97-11.12c9.97,5.91,16.09,16.11,16.09,26.78
		c0,18.15-17.23,31.54-40.57,31.54H20.4z M0,298.2h45.33c34.46,0,60.29-21.56,60.29-50.15c0-15.66-7.93-29.73-21.99-38.81
		c7.26-7.26,10.66-15.66,10.66-25.87c0-21.1-15.19-35.17-38.07-35.17H0V298.2z"/>
	<path d="M0,355.22h3.74v-13.53H19.1v-3.38H3.74v-10.86h17.19v-3.38H0V355.22z"/>
	<path d="M35.47,355.93c6.28,0,11.98-4.72,11.98-12.29c0-7.39-5.7-12.11-11.98-12.11c-6.28,0-11.98,4.72-11.98,12.11
		C23.49,351.21,29.19,355.93,35.47,355.93z M27.14,343.64c0-5.52,3.43-8.9,8.33-8.9c4.9,0,8.33,3.38,8.33,8.9
		c0,5.65-3.43,9.08-8.33,9.08C30.57,352.72,27.14,349.3,27.14,343.64z"/>
	<path d="M52.91,355.22h3.56v-8.19c0-4.32,0.76-7.48,2.72-9.44c1.56-1.56,3.83-2.36,7.03-2.49v-3.21c-5.7,0-8.55,2.54-9.57,7.44
		h-0.18l-0.13-7.08h-3.43V355.22z"/>
	<path d="M70.43,355.22h3.61v-12.07c0-5.39,2.89-8.33,6.54-8.33c3.43,0,5.7,2.49,5.7,6.28v14.11h3.56v-11.84
		c0-5.12,2.63-8.55,6.59-8.55c3.43,0,5.7,2.49,5.7,6.28v14.11h3.56v-15.27c0-5.03-3.12-8.41-7.84-8.41c-3.83,0-6.77,2.23-7.92,6.28
		h-0.31c-0.76-3.83-3.61-6.28-7.61-6.28c-3.83,0-6.59,2.23-7.75,6.28h-0.22l-0.27-5.57h-3.38L70.43,355.22z"/>
	<path d="M122.58,355.93c5.7,0,9.93-3.52,10.6-8.77h-3.65c-0.67,3.16-3.12,5.65-6.95,5.65c-4.45,0-7.75-2.94-7.84-8.5h18.52
		c0.04-0.58,0.09-1.11,0.09-1.65c0-6.5-4.63-11.13-10.86-11.13c-6.68,0-11.31,4.41-11.31,12.11
		C111.19,351.92,115.95,355.93,122.58,355.93z M114.75,341.82c0.31-4.72,3.47-7.17,7.61-7.17c4.41,0,7.08,2.85,7.35,7.17H114.75z"/>
	<path d="M138.82,355.22h3.56v-8.19c0-4.32,0.76-7.48,2.72-9.44c1.56-1.56,3.83-2.36,7.03-2.49v-3.21c-5.7,0-8.55,2.54-9.57,7.44
		h-0.18l-0.13-7.08h-3.43V355.22z"/>
	<path d="M156.21,324.05v31.16h3.56v-31.16H156.21z"/>
	<path d="M167.56,363.81c3.87,0,6.05-2.63,8.15-7.79l9.75-23.77h-3.92l-3.92,10.28c-1.07,2.72-2.27,5.7-3.34,8.64h-0.18
		c-0.98-2.94-2.09-6.01-3.07-8.73l-3.7-10.2h-3.96l8.82,22.88l-0.85,2c-1.16,2.67-2.27,3.52-4.54,3.52c-0.76,0-1.65-0.13-2.72-0.4
		v3.03C165.38,363.63,166.53,363.81,167.56,363.81z"/>
	<path class="st1" d="M357.51,318.3c-0.69-0.66-1.62-1-2.56-0.92c-0.94-0.08-1.87,0.25-2.56,0.92c-0.69,0.66-1.07,1.6-1.06,2.57
		c0.14,1.95,1.72,3.47,3.62,3.47c1.9,0,3.48-1.51,3.62-3.47C358.58,319.9,358.2,318.97,357.51,318.3z M338.6,356.78h5.49l0.04-38.67
		h-5.87v15.54c-1.81-3.27-6.39-4.87-9.79-4.87c-8.09,0-14.14,5.03-14.14,14.32c0,9.07,6.17,14.32,14.26,14.32
		c3.84,0.15,7.48-1.73,9.67-4.98L338.6,356.78z M230.82,333.54c-3.62,0-5.94,1.21-5.94,3.37c0,2.16,2.44,3.1,6.06,3.49
		c5.15,0.44,11.82,1.33,11.82,8.41c0,5.04-4.7,8.63-11.88,8.63c-4.53,0-8.89-1.01-12.72-5.04l3.05-4.03
		c2.56,2.6,6.02,4.05,9.62,4.03c3.11,0,6.16-0.95,6.16-3.49s-2.38-3.38-6.51-3.76c-5.21-0.44-11.37-2.02-11.37-8.06
		c0-6.05,6.4-8.3,11.6-8.3c3.88-0.08,7.67,1.18,10.76,3.59l-3.05,3.6C236.22,334.33,233.54,333.47,230.82,333.54z M262.05,352.13
		c2.94,0,6.34-1.01,8.09-2.93l3.8,3.59c-2.89,3.16-7.7,4.65-12,4.65c-9.17,0-15.05-5.58-15.05-14.32c0-8.3,6.11-14.32,14.93-14.32
		c8.21,0,13.87,4.7,13.87,14.11c0,0.77-0.06,1.6-0.12,2.43h-22.6C253.45,349.58,256.88,352.13,262.05,352.13z M253.01,340.57
		c0.89-4.43,4.57-6.69,8.81-6.69c4.84,0,7.78,2.32,8.11,6.69H253.01z M302.68,341.45c0-4.7-2.72-7.41-7.53-7.41
		c-2.12-0.02-4.16,0.85-5.64,2.42c-1.48,1.57-2.27,3.69-2.19,5.87v14.45h-5.87v-27.33h5.32l0.34,3.81c2.33-2.86,5.77-4.5,9.38-4.48
		c6.73,0,12,4.09,12,12.61v15.38h-5.87L302.68,341.45z M320.15,343.11c0,5.53,3.85,9.02,8.81,9.02c4.82,0,8.73-4.03,8.73-8.99
		c0-4.97-3.91-8.99-8.73-8.99C324,334.15,320.15,337.58,320.15,343.11z M357.84,356.78h-5.87v-27.33h5.87V356.78z M379.38,334.04
		c4.81,0,7.53,2.71,7.53,7.41l-0.05,15.33h5.87V341.4c0-8.52-5.27-12.61-12-12.61c-3.62-0.02-7.06,1.62-9.39,4.48l-0.34-3.81h-5.31
		v27.33h5.87v-14.45c-0.08-2.19,0.71-4.31,2.19-5.88C375.22,334.89,377.26,334.01,379.38,334.04z M406.09,333.93
		c1.81-3.27,6.4-5.14,9.78-5.14c8.04,0,14.15,5.04,14.15,14.32c0,9.07-6.57,14.32-14.2,14.32c-3.51,0-7.53-1.49-9.74-4.98
		l-0.33,4.32h-5.49v-38.67h5.87L406.09,333.93z M409.02,349.6c-1.69-1.71-2.62-4.05-2.59-6.49c-0.02-2.42,0.93-4.75,2.61-6.44
		c1.68-1.69,3.97-2.6,6.32-2.52c5.08,0,8.81,3.43,8.81,8.96c0,5.53-3.71,9.02-8.81,9.02C413,352.22,410.71,351.3,409.02,349.6z
		 M442.3,356.78h-5.87v-38.67h5.87V356.78z M463.4,352.18c-4.92,0-7.58-3.21-7.58-7.85l0.02-14.88h-5.83v14.93
		c0,8.25,4.9,13.05,11.74,13.05c3.7,0.13,7.24-1.5,9.62-4.43l0.34,3.77h5.25v-27.33h-5.82v14.49c0.09,2.17-0.69,4.28-2.15,5.84
		C467.54,351.34,465.51,352.21,463.4,352.18z M498.37,352.13c2.93,0,6.33-1.01,8.09-2.93l3.79,3.59c-2.89,3.16-7.69,4.65-12,4.65
		c-9.16,0-15.05-5.58-15.05-14.32c0-8.3,6.11-14.32,14.94-14.32c8.2,0,13.86,4.7,13.86,14.11c0,0.66-0.04,1.36-0.09,2.07
		c-0.01,0.12-0.01,0.24-0.02,0.36h-22.63C489.78,349.58,493.22,352.13,498.37,352.13z M489.34,340.57c0.88-4.43,4.56-6.69,8.81-6.69
		c4.8,0,7.75,2.32,8.1,6.69H489.34z"/>
</g>
</svg>
